<?xml version="1.0" encoding="UTF-8"?>
<svg width="9px" height="12px" viewBox="0 0 9 12" version="1.1" xmlns="http://www.w3.org/2000/svg" xmlns:xlink="http://www.w3.org/1999/xlink">
    <!-- Generator: Sketch 49.3 (51167) - http://www.bohemiancoding.com/sketch -->
    <title>noun_300284_cc</title>
    <desc>Created with Sketch.</desc>
    <defs></defs>
    <g id="Page-1" stroke="none" stroke-width="1" fill="none" fill-rule="evenodd">
        <g id="noun_300284_cc" transform="translate(-6.000000, -4.000000)">
            <g id="Group" transform="translate(6.000000, 4.000000)" fill="#D8D8D8" fill-rule="nonzero">
                <path d="M0.75,2.79225 L0.75,6.822 C1.1565,6.2985 1.6875,5.8755 2.25,5.51925 L2.25,2.79225 C2.69625,2.532 3,2.0535 3,1.5 C3,0.672 2.32875,0 1.5,0 C0.67125,0 0,0.672 0,1.5 C0,2.0535 0.30375,2.532 0.75,2.79225 Z M1.5,0.75 C1.91325,0.75 2.25,1.08675 2.25,1.5 C2.25,1.91325 1.91325,2.25 1.5,2.25 C1.08675,2.25 0.75,1.91325 0.75,1.5 C0.75,1.08675 1.08675,0.75 1.5,0.75 Z" id="Shape"></path>
                <path d="M7.5,0 C6.67125,0 6,0.672 6,1.5 C6,2.0535 6.303,2.532 6.75,2.79225 L6.75,3 C6.75,3.96675 5.77275,4.52475 4.16475,5.32875 C2.56425,6.129 0.75,7.0365 0.75,9 L0.75,9.20775 C0.30375,9.468 0,9.9465 0,10.5 C0,11.328 0.67125,12 1.5,12 C2.32875,12 3,11.328 3,10.5 C3,9.9465 2.69625,9.468 2.25,9.20775 L2.25,9 C2.25,8.03325 3.2265,7.47525 4.83525,6.67125 C6.43575,5.871 8.25,4.9635 8.25,3 L8.25,2.79225 C8.697,2.532 9,2.0535 9,1.5 C9,0.672 8.32875,0 7.5,0 Z M1.5,11.25 C1.08675,11.25 0.75,10.91325 0.75,10.5 C0.75,10.08675 1.08675,9.75 1.5,9.75 C1.91325,9.75 2.25,10.08675 2.25,10.5 C2.25,10.91325 1.91325,11.25 1.5,11.25 Z M7.5,2.25 C7.08675,2.25 6.75,1.91325 6.75,1.5 C6.75,1.08675 7.08675,0.75 7.5,0.75 C7.91325,0.75 8.25,1.08675 8.25,1.5 C8.25,1.91325 7.91325,2.25 7.5,2.25 Z" id="Shape"></path>
            </g>
            <rect id="Rectangle" x="0" y="0" width="21" height="21"></rect>
        </g>
    </g>
</svg>