<?xml version="1.0" encoding="UTF-8"?>
<svg width="388px" height="500px" viewBox="0 0 388 500" version="1.1" xmlns="http://www.w3.org/2000/svg" xmlns:xlink="http://www.w3.org/1999/xlink">
    <!-- Generator: Sketch 49.3 (51167) - http://www.bohemiancoding.com/sketch -->
    <title>document_extension_file_format_rtf_icon_128</title>
    <desc>Created with Sketch.</desc>
    <defs></defs>
    <g id="Page-1" stroke="none" stroke-width="1" fill="none" fill-rule="evenodd">
        <g id="document_extension_file_format_rtf_icon_128" fill-rule="nonzero">
            <g id="XMLID_122_">
                <polygon id="XMLID_126_" fill="#EDE6DA" points="268.7 0 25.9 0 25.9 500 387.2 500 387.2 116.8"></polygon>
                <polygon id="XMLID_125_" fill="#837D6E" points="268.7 0 387.2 116.8 268.7 116.8"></polygon>
                <rect id="XMLID_124_" fill="#837D6E" x="0.8" y="292.8" width="329" height="156.1"></rect>
                <polygon id="XMLID_123_" fill="#514A3D" points="0.8 448.9 25.9 470.1 25.9 448.9"></polygon>
            </g>
            <g id="XMLID_811_" transform="translate(88.000000, 325.000000)" fill="#FFFFFF">
                <path d="M36.2,46.9 L29.7,46.8 C27.4,46.8 25.5,47.2 24.1,48.1 C22.6,49 21.6,50.1 20.8,51.7 L20.8,94 L0.8,94 L0.8,29.8 L19.7,29.8 L20.4,39.2 C21.7,35.8 23.5,33.2 25.7,31.4 C27.9,29.5 30.5,28.6 33.5,28.6 C34.4,28.6 35.2,28.7 35.9,28.8 C36.6,28.9 37.4,29.1 38.2,29.3 L36.2,46.9 Z" id="XMLID_745_"></path>
                <path d="M76.1,13.9 L76.1,29.9 L86.2,29.9 L86.2,43.8 L76.1,43.8 L76.1,73.2 C76.1,75.5 76.6,77.1 77.5,78.2 C78.4,79.2 79.7,79.7 81.3,79.7 C82.3,79.7 83.1,79.7 83.8,79.6 C84.4,79.5 85.2,79.4 86.1,79.1 L87.5,93.9 C85.5,94.4 83.7,94.8 82,95 C80.4,95.2 78.5,95.3 76.2,95.3 C69.6,95.3 64.6,93.5 61.2,90 C57.8,86.5 56.1,80.9 56.1,73.3 L56.1,43.8 L47.1,43.8 L47.1,29.9 L56.1,29.9 L56.1,13.9 L76.1,13.9 Z" id="XMLID_747_"></path>
                <path d="M108.8,94 L108.8,43.7 L99.5,43.7 L99.5,29.8 L108.8,29.8 L108.8,23.2 C108.8,15.8 111,10.2 115.4,6.2 C119.8,2.2 126.1,0.2 134.2,0.2 C135.7,0.2 137.3,0.3 138.9,0.5 C140.5,0.7 142.2,1 144.1,1.4 L142.6,16.2 C141.5,16 140.5,15.9 139.7,15.8 C138.9,15.7 137.9,15.7 136.7,15.7 C134.2,15.7 132.2,16.4 130.9,17.7 C129.6,19 128.9,20.9 128.9,23.3 L128.9,29.9 L141.6,29.9 L141.6,43.8 L128.9,43.8 L128.9,94 L108.8,94 Z" id="XMLID_749_"></path>
            </g>
        </g>
    </g>
</svg>