<?xml version="1.0" encoding="UTF-8"?>
<svg width="89px" height="87px" viewBox="0 0 89 87" version="1.1" xmlns="http://www.w3.org/2000/svg" xmlns:xlink="http://www.w3.org/1999/xlink">
    <!-- Generator: Sketch 49.3 (51167) - http://www.bohemiancoding.com/sketch -->
    <title>microsoft_ppt</title>
    <desc>Created with Sketch.</desc>
    <defs>
        <polygon id="path-1" points="0 100.981177 120.835584 100.981177 120.835584 0 0 0"></polygon>
    </defs>
    <g id="Page-1" stroke="none" stroke-width="1" fill="none" fill-rule="evenodd">
        <g id="microsoft_ppt" transform="translate(-16.000000, -8.000000)">
            <g id="g12" transform="translate(60.854956, 50.870890) scale(-1, 1) rotate(-180.000000) translate(-60.854956, -50.870890) translate(0.354956, 0.370890)">
                <g id="g14-Clipped">
                    <mask id="mask-2" fill="white">
                        <use xlink:href="#path-1"></use>
                    </mask>
                    <g id="path16"></g>
                    <g id="g14" mask="url(#mask-2)">
                        <g transform="translate(16.374038, 6.930081)">
                            <rect id="Rectangle" fill="#FFFFFF" x="47" y="13" width="40" height="62"></rect>
                            <g id="g20" stroke-width="1" fill="none" transform="translate(0.154253, 0.371254)">
                                <path d="M85.1161017,14.2937866 L50.3260871,14.2937866 L50.3260871,21.7599586 L77.4554599,21.7599586 L77.4554599,25.224999 L50.3260871,25.224999 L50.3260871,31.0824023 L77.4554599,31.0824023 L77.4554599,34.5474427 L50.3260871,34.5474427 L50.3260871,44.1767899 C52.5120211,41.5423692 55.7627492,39.8692497 59.3958593,39.8692497 C65.9787041,39.8692497 71.3147141,45.3544087 71.3147141,52.1201475 L59.3958593,52.1201475 L59.3958593,64.3710453 C55.7627492,64.3710453 52.5120211,62.6979258 50.3260871,60.0635051 L50.3260871,73.694479 L85.1209176,73.694479 L85.1161017,14.2937866 Z M85.1209176,76.6645136 L50.3260871,76.6645136 L50.3260871,86.0072525 L0,77.0323029 L0,8.97494962 L50.3260871,0 L50.3260871,11.323752 L85.1209176,11.323752 C86.7144968,11.323752 88.0104537,12.6558125 88.0104537,14.2937866 L88.0104537,73.694479 C88.0104537,75.3324531 86.7144968,76.6645136 85.1209176,76.6645136 Z" id="path22" fill="#CB4A32" fill-rule="nonzero"></path>
                            </g>
                            <g id="g24" stroke-width="1" fill="none" transform="translate(61.516442, 54.161551)">
                                <path d="M0,12.3751442 L0,0.124246448 L11.9188548,0.124246448 C11.9188548,6.88998531 6.58284483,12.3751442 0,12.3751442" id="path26" fill="#CB4A32" fill-rule="nonzero"></path>
                            </g>
                            <g id="g28" stroke-width="1" fill="none" transform="translate(16.271748, 28.615591)">
                                <path d="M5.29748285,15.3451789 C7.30522885,15.186777 9.26626068,14.8011675 10.4856449,16.9405825 C11.4074069,18.5547963 11.329871,21.5045357 10.2607427,22.7450201 C8.87809967,24.3488388 7.09188477,24.1201462 5.29748285,23.8280928 L5.29748285,15.3451789 Z M5.15589558,0.158401846 L0.115099855,0.158401846 L0.115099855,29.0776289 C4.00393386,29.0776289 7.87302269,29.1899953 11.7276639,29.0018931 C12.7409278,28.9523925 13.9174506,28.1782035 14.6653589,27.3842142 C17.527926,24.3463638 17.5284076,20.5620447 16.6731049,16.7876257 C15.9107489,13.4260415 13.800906,11.0609039 10.4755315,10.2292942 C8.81886418,9.81497441 7.04613378,9.8912053 5.15589558,9.73131843 L5.15589558,0.158401846 Z" id="path30" fill="#FFFFFF"></path>
                            </g>
                        </g>
                    </g>
                </g>
            </g>
        </g>
    </g>
</svg>